<svg width="175" height="250" viewBox="0 0 175 250" fill="none" xmlns="http://www.w3.org/2000/svg">
<rect width="175" height="250" rx="5" fill="#26282A"/>
<rect x="6" y="6" width="163" height="238" fill="#B2536C"/>
<circle cx="8" cy="9" r="7" fill="#26282A"/>
<circle cx="7" cy="241" r="7" fill="#26282A"/>
<circle cx="168" cy="241" r="7" fill="#26282A"/>
<circle cx="168" cy="9" r="7" fill="#26282A"/>
<circle cx="8.5" cy="9.5" r="1.5" fill="#B2536C"/>
<circle cx="166.5" cy="9.5" r="1.5" fill="#B2536C"/>
<circle cx="8.5" cy="240.5" r="1.5" fill="#B2536C"/>
<circle cx="166.5" cy="240.5" r="1.5" fill="#B2536C"/>
<line x1="8.5" y1="18" x2="8.5" y2="232" stroke="#26282A"/>
<line x1="166.5" y1="18" x2="166.5" y2="232" stroke="#26282A"/>
<path d="M16.5 240C16.5 244.722 12.8917 248.5 8.5 248.5C4.10826 248.5 0.5 244.722 0.5 240C0.5 235.278 4.10826 231.5 8.5 231.5C12.8917 231.5 16.5 235.278 16.5 240Z" stroke="#26282A"/>
<path d="M17.5 10C17.5 14.7217 13.8917 18.5 9.5 18.5C5.10826 18.5 1.5 14.7217 1.5 10C1.5 5.27827 5.10826 1.5 9.5 1.5C13.8917 1.5 17.5 5.27827 17.5 10Z" stroke="#26282A"/>
<path d="M174.5 10C174.5 14.7217 170.892 18.5 166.5 18.5C162.108 18.5 158.5 14.7217 158.5 10C158.5 5.27827 162.108 1.5 166.5 1.5C170.892 1.5 174.5 5.27827 174.5 10Z" stroke="#26282A"/>
<path d="M174.5 240C174.5 244.722 170.892 248.5 166.5 248.5C162.108 248.5 158.5 244.722 158.5 240C158.5 235.278 162.108 231.5 166.5 231.5C170.892 231.5 174.5 235.278 174.5 240Z" stroke="#26282A"/>
<rect x="6" y="16" width="2" height="3" fill="#B2536C"/>
<rect x="167" y="230" width="2" height="3" fill="#B2536C"/>
<rect x="167" y="17" width="2" height="3" fill="#B2536C"/>
<rect x="6" y="230" width="2" height="3" fill="#B2536C"/>
<line x1="16" y1="241.5" x2="159" y2="241.5" stroke="#26282A"/>
<line x1="17" y1="8.5" x2="159" y2="8.5" stroke="#26282A"/>
<rect x="16" y="6" width="3" height="2" fill="#B2536C"/>
<rect x="14" y="242" width="3" height="2" fill="#B2536C"/>
<rect x="158" y="242" width="3" height="2" fill="#B2536C"/>
<rect x="158" y="6" width="3" height="2" fill="#B2536C"/>
<circle cx="87" cy="125" r="15.5" stroke="#26282A"/>
<circle cx="87" cy="125" r="22.25" stroke="#26282A" stroke-width="1.5"/>
<circle cx="87" cy="125" r="30.75" stroke="#26282A" stroke-width="2.5"/>
<circle cx="87" cy="125" r="41.25" stroke="#26282A" stroke-width="3.5"/>
<rect x="79.5" y="117.5" width="15" height="15" rx="2.5" fill="#B2536C" stroke="#26282A"/>
<rect x="82.5" y="66.5" width="9" height="9" rx="1.5" fill="#B2536C" stroke="#26282A"/>
<circle cx="87" cy="71" r="1" fill="#26282A"/>
<rect x="28.5" y="119.5" width="9" height="9" rx="1.5" fill="#B2536C" stroke="#26282A"/>
<circle cx="33" cy="124" r="1" fill="#26282A"/>
<rect x="82.5" y="174.5" width="9" height="9" rx="1.5" fill="#B2536C" stroke="#26282A"/>
<circle cx="87" cy="179" r="1" fill="#26282A"/>
<rect x="136.5" y="119.5" width="9" height="9" rx="1.5" fill="#B2536C" stroke="#26282A"/>
<circle cx="141" cy="124" r="1" fill="#26282A"/>
<circle cx="83" cy="121" r="1" fill="#26282A"/>
<circle cx="91" cy="129" r="1" fill="#26282A"/>
<circle cx="91" cy="125" r="1" fill="#26282A"/>
<circle cx="91" cy="121" r="1" fill="#26282A"/>
<circle cx="83" cy="129" r="1" fill="#26282A"/>
<circle cx="83" cy="125" r="1" fill="#26282A"/>
</svg>
