<svg width="175" height="250" fill="none" xmlns="http://www.w3.org/2000/svg"><rect width="175" height="250" rx="5" fill="#26282A"/><path fill="#94475B" d="M6 6h163v238H6z"/><circle cx="8" cy="9" r="7" fill="#26282A"/><circle cx="7" cy="241" r="7" fill="#26282A"/><circle cx="168" cy="241" r="7" fill="#26282A"/><circle cx="168" cy="9" r="7" fill="#26282A"/><circle cx="8.5" cy="9.5" r="1.5" fill="#94475B"/><circle cx="166.5" cy="9.5" r="1.5" fill="#94475B"/><circle cx="8.5" cy="240.5" r="1.5" fill="#94475B"/><circle cx="166.5" cy="240.5" r="1.5" fill="#94475B"/><path stroke="#26282A" d="M8.5 18v214M166.5 18v214M16.5 240c0 4.722-3.608 8.5-8 8.5-4.392 0-8-3.778-8-8.5 0-4.722 3.608-8.5 8-8.5 4.392 0 8 3.778 8 8.5zM17.5 10c0 4.722-3.608 8.5-8 8.5-4.392 0-8-3.778-8-8.5 0-4.722 3.608-8.5 8-8.5 4.392 0 8 3.778 8 8.5zM174.5 10c0 4.722-3.608 8.5-8 8.5-4.392 0-8-3.778-8-8.5 0-4.722 3.608-8.5 8-8.5 4.392 0 8 3.778 8 8.5zM174.5 240c0 4.722-3.608 8.5-8 8.5-4.392 0-8-3.778-8-8.5 0-4.722 3.608-8.5 8-8.5 4.392 0 8 3.778 8 8.5z"/><path fill="#94475B" d="M6 16h2v3H6zM167 230h2v3h-2zM167 17h2v3h-2zM6 230h2v3H6z"/><path stroke="#26282A" d="M16 241.5h143M17 8.5h142"/><path fill="#94475B" d="M16 6h3v2h-3zM14 242h3v2h-3zM158 242h3v2h-3zM158 6h3v2h-3z"/><circle cx="87" cy="125" r="15.5" stroke="#26282A"/><circle cx="87" cy="125" r="22" stroke="#26282A" stroke-width="2"/><circle cx="87" cy="125" r="30.5" stroke="#26282A" stroke-width="3"/><circle cx="87" cy="125" r="41" stroke="#26282A" stroke-width="4"/><rect x="79.5" y="117.5" width="15" height="15" rx="2.5" fill="#94475B" stroke="#26282A"/><circle cx="83" cy="121" r="1" fill="#26282A"/><circle cx="91" cy="129" r="1" fill="#26282A"/><circle cx="91" cy="121" r="1" fill="#26282A"/><circle cx="83" cy="129" r="1" fill="#26282A"/><path d="M87.866 62.5 87 61l-.866 1.5L80.072 73l-.866 1.5h15.588l-.866-1.5-6.062-10.5zM36.062 118.5v-1.732l-1.5.866-10.5 6.062-1.5.866 1.5.866 10.5 6.062 1.5.866V118.5zM139.562 117.634l-1.5-.866v15.588l1.5-.866 10.5-6.062 1.5-.866-1.5-.866-10.5-6.062zM86.134 187.5 87 189l.866-1.5 6.062-10.5.866-1.5H79.206l.866 1.5 6.062 10.5z" fill="#94475B" stroke="#26282A" stroke-width="2"/></svg>